<svg xmlns="http://www.w3.org/2000/svg" width="323" height="323" fill="none" xmlns:v="https://vecta.io/nano"><g clip-path="url(#A)"><path d="M174.845 161.5c17.906-1.148 35.872-1.648 53.898-1.5l75.072 1h6.737a67.06 67.06 0 0 1 11.55.5c-4.435 1.035-8.606 2.535-12.513 4.5-14.037 4.792-27.511 10.958-40.422 18.5-50.246 33.046-84.895 78.879-103.947 137.5-52.297.333-104.591 0-156.881-1 31.281-48.674 69.137-91.174 113.571-127.5a269.91 269.91 0 0 1 52.935-32z" fill="#e31e37"/><path opacity=".992" d="M322.101 182a3379.12 3379.12 0 0 1 .482 131c-.174 3.195-.655 6.195-1.444 9a.92.92 0 0 1-.481 1c-10.822-15.248-22.371-29.914-34.648-44-14.37-16.116-30.251-30.116-47.642-42-.523-.06-.844-.393-.963-1 17.931-30.644 42.634-52.977 74.109-67a119.77 119.77 0 0 1 10.587-2v15z" fill="#fed00a"/><path opacity=".999" d="M24.22 1c.642-1.333 1.283-1.333 1.925 0 24.183 49.808 55.785 93.974 94.803 132.5 8.914 7.769 18.218 14.936 27.911 21.5.523.06.844.393.963 1-1.821 2-1.378 1.5-3.849 4s-48.989 42.231-68.335 69C50.105 205.228 24.278 179.561.158 152-1.214 101.472 6.326 52.472 22.776 5c0-.667.32-1 .962-1a5.1 5.1 0 0 1 .482-3z" fill="#00498d"/></g><defs><clipPath id="A"><path fill="#fff" d="M0 0h323v323H0z"/></clipPath></defs></svg>