<svg width="22" height="22" viewBox="0 0 96 96" fill="none" xmlns="http://www.w3.org/2000/svg">
<circle cx="48" cy="48" r="48" fill="#E5214B"/>
<path d="M74.5569 54.4611H60.5742V35.4697C60.5742 33.9045 59.322 32.5479 57.6524 32.5479C56.0872 32.5479 54.7307 33.8001 54.7307 35.4697V57.3829C54.7307 58.9481 55.9829 60.3046 57.6524 60.3046H71.6351V61.6612L71.5308 61.7655L47.7393 75.4352L47.6349 75.3308L23.9479 61.5568V34.0088L24.0522 33.9045L47.7393 20.2348L47.8437 20.3392L73.096 34.8436C73.7221 35.261 74.5569 35.3654 75.2873 35.1567C76.8525 34.7393 77.7917 33.174 77.3743 31.6088C77.1656 30.8784 76.6438 30.2523 76.0178 29.8349L49.2002 14.3913C48.261 13.8696 47.2176 13.8696 46.2784 14.3913L19.4608 29.8349C18.5217 30.3566 18 31.2958 18 32.3392V62.809C18 63.5394 18.1043 64.2699 18.5217 64.896C18.7304 65.209 19.0435 65.5221 19.3565 65.7308L46.1741 81.2787C47.1132 81.8004 48.1567 81.8004 49.0958 81.2787L75.9134 65.8351C76.8526 65.3134 77.3743 64.3742 77.3743 63.3308V57.3829C77.4786 55.8177 76.1221 54.4611 74.5569 54.4611Z" fill="white"/>
<path d="M39.7044 32.8611C38.6609 32.8611 37.8261 33.4871 37.3044 34.4263L27.1825 56.7569C26.6608 58.1134 27.2869 59.5743 28.6435 60.096C29.8956 60.6178 31.2521 60.096 31.8782 58.8438L33.7565 54.7742H34.1739H44.7131L46.2783 58.7395C46.6957 59.6786 47.6348 60.4091 48.6783 60.3047C48.9914 60.3047 49.3044 60.2004 49.6175 60.096C50.974 59.5743 51.6001 58.1134 51.0784 56.7569C51.0784 56.7569 51.0784 56.7569 51.0784 56.6525L42.1044 34.3219C41.7913 33.4871 40.8522 32.8611 39.7044 32.8611ZM36.1565 49.5568L39.6 41.9394L42.6261 49.5568H36.1565Z" fill="white"/>
</svg>
