<svg width="96" height="96" viewBox="0 0 96 96" fill="none" xmlns="http://www.w3.org/2000/svg">
<path d="M23.2 38.3C23.6 38.4 23.9 38.4 24.3 38.4C26 38.4 27.6 37.3 28.1 35.5C28.7 33.5 30.5 32.1 32.7 32.1C34.8 32.1 36.7 33.5 37.2 35.5C37.8 37.6 40 38.8 42 38.2C44.1 37.6 45.3 35.4 44.7 33.4C43.2 28 38.2 24.2 32.6 24.2C27 24.2 22 28 20.5 33.4C19.9 35.5 21.1 37.7 23.2 38.3Z" fill="#101828"/>
<path d="M63.4 24.3C57.8 24.3 52.8 28.1 51.3 33.5C50.7 35.6 51.9 37.8 54 38.3C56.1 38.9 58.3 37.7 58.8 35.6C59.4 33.6 61.2 32.2 63.3 32.2C65.4 32.2 67.3 33.6 67.9 35.6C68.4 37.3 70 38.5 71.7 38.5C72 38.5 72.4 38.5 72.8 38.4C74.9 37.8 76.1 35.6 75.5 33.6C74 28.1 69 24.3 63.4 24.3Z" fill="#101828"/>
<path d="M69.4 48.6H26.6C23.5 48.6 20.9 51 20.8 54.2C20.7 58.1 22.2 64.5 27.2 69.6C30.6 73.2 37 77.4 48 77.4C59 77.4 65.4 73.2 68.8 69.6C73.7 64.5 75.3 58.1 75.2 54.2C75.1 51 72.6 48.6 69.4 48.6ZM34 66.8C37.8 64 42.7 62.3 48 62.3C53.3 62.3 58.2 64 62 66.8C58.4 69.4 53.7 70.8 48 70.8C42.2 70.8 37.5 69.5 34 66.8Z" fill="#101828"/>
<path d="M75.9 0.5H20.1C9.3 0.5 0.5 9.3 0.5 20.1V75.9C0.5 86.7 9.3 95.5 20.1 95.5H75.9C86.7 95.5 95.5 86.7 95.5 75.9V20.1C95.5 9.3 86.7 0.5 75.9 0.5ZM87.7 75.9C87.7 82.4 82.4 87.7 75.9 87.7H20.1C13.6 87.7 8.3 82.4 8.3 75.9V20.1C8.3 13.6 13.6 8.3 20.1 8.3H75.9C82.4 8.3 87.7 13.6 87.7 20.1V75.9Z" fill="#101828"/>
</svg>
