<svg xmlns="http://www.w3.org/2000/svg" fill="none" width="22" height="22" viewBox="0 0 420 420" xmlns:v="https://vecta.io/nano"><path d="M12.467 219.926c-.881.227-4.652 1.116-8.299-1.506-2.575-1.852-3.575-4.381-3.932-6.051-.339-1.588-.239-2.947-.141-3.73.198-1.58.689-3.022 1.062-4.004.802-2.111 2.059-4.637 3.499-7.297 2.939-5.43 7.376-12.761 12.708-21.216 12.628-20.024 42.417-62.303 62.108-89.982 5.334-7.497 8.001-11.246 7.864-11.712a.99.99 0 0 0-.879-.715c-.484-.039-3.621 3.347-9.894 10.118-11.225 12.115-23.732 25.087-29.383 29.1-.681.483-1.46.999-2.284 1.45-.669.366-2.065 1.085-3.84 1.399-1.639.291-6.661.624-9.931-4.012-2.485-3.523-1.76-7.215-1.611-7.978l.002-.011c.822-4.19 4.282-7.192 8.316-7.62 22.623-18.506 41.771-41.273 63.031-61.282 4.134-3.891 7.9-7.281 10.862-9.623 1.424-1.126 3.02-2.298 4.571-3.144.721-.394 1.982-1.027 3.542-1.371 1.235-.272 5.34-.94 8.935 2.223 2.947 2.592 3.282 5.888 3.325 7.096.049 1.407-.201 2.562-.351 3.167-.32 1.283-.83 2.497-1.236 3.391-.868 1.912-2.163 4.288-3.674 6.894-3.07 5.294-7.61 12.52-13.046 20.925l-51.146 77.625c-2.856 4.298-4.284 6.447-4.141 6.903a1 1 0 0 0 .876.697c.476.037 2.252-1.838 5.803-5.59L173.533 32.15c9.615-9.454 17.953-17.352 24.2-22.729 3.078-2.649 5.916-4.921 8.28-6.47 1.122-.735 2.6-1.619 4.218-2.208.803-.292 2.122-.694 3.734-.74 1.659-.047 4.346.282 6.794 2.292 2.622 2.153 3.424 4.953 3.625 6.728.192 1.69-.058 3.116-.248 3.953-.389 1.704-1.101 3.311-1.701 4.531-1.271 2.585-3.228 5.777-5.554 9.289-4.72 7.129-11.779 16.795-20.287 28.023-12.602 16.633-41.526 52.917-62.347 78.908-6.307 7.874-9.461 11.811-9.344 12.289a1 1 0 0 0 .861.757c.489.054 3.992-3.585 10.997-10.862l63.993-65.517c9.695-9.498 18.096-17.425 24.377-22.8 3.091-2.645 5.95-4.917 8.333-6.455 1.123-.725 2.643-1.62 4.321-2.196.833-.285 2.234-.681 3.944-.66 1.814.023 4.545.548 6.885 2.759 3.226 3.047 3.15 6.854 3.067 8.022-.105 1.477-.501 2.693-.743 3.359-.517 1.431-1.28 2.877-1.984 4.11-1.476 2.586-3.689 5.934-6.384 9.787-5.441 7.782-13.45 18.481-23.082 31.034l-74.031 94.47c-8.887 11.233-13.331 16.849-13.207 17.33a1 1 0 0 0 .881.746c.495.043 5.296-5.257 14.899-15.857L260.039 72.366c12.612-13.225 23.468-24.233 31.536-31.733 3.992-3.711 7.543-6.791 10.403-8.869 1.369-.995 3.014-2.083 4.73-2.83.84-.365 2.205-.878 3.876-1.034 1.689-.158 4.685-.02 7.434 2.169 4.176 3.326 3.723 8.049 3.626 8.918-.164 1.463-.607 2.666-.857 3.294-.554 1.393-1.357 2.857-2.129 4.165-1.616 2.738-4.048 6.37-7.049 10.635-6.048 8.598-14.945 20.522-25.668 34.584L182.773 224.789c-6.199 7.941-9.298 11.911-9.175 12.388a1 1 0 0 0 .873.745c.491.047 3.925-3.64 10.795-11.013l113.492-120.534 30.071-30.443c3.735-3.603 6.921-6.545 9.345-8.558 1.163-.965 2.446-1.966 3.679-2.72.559-.342 1.603-.946 2.916-1.355l.021-.007c.651-.204 5.18-1.622 9.279 1.747 4.18 3.436 3.589 8.231 3.483 9.033-.192 1.449-.654 2.641-.916 3.272-.582 1.397-1.42 2.877-2.236 4.22-1.705 2.803-4.267 6.532-7.433 10.926-6.381 8.852-15.752 21.134-27.042 35.626L214.486 260.401c-8.228 10.221-12.342 15.332-12.223 15.813a1 1 0 0 0 .871.755c.494.049 4.965-4.755 13.907-14.363l97.258-102.714c11.814-11.988 22.01-21.962 29.607-28.73 3.752-3.342 7.135-6.142 9.893-8.021 1.314-.895 2.961-1.914 4.718-2.584.867-.331 2.283-.783 4.006-.836 1.801-.056 4.655.331 7.166 2.545 3.015 2.659 3.358 6.057 3.361 7.523.003 1.568-.344 2.859-.562 3.566-.461 1.494-1.18 2.947-1.804 4.106-1.32 2.453-3.308 5.561-5.697 9.065-4.834 7.094-11.986 16.794-20.59 28.129l-75.111 96.181c-5.841 7.387-8.761 11.081-8.642 11.558a1 1 0 0 0 .862.752c.488.053 3.749-3.34 10.272-10.125l88.517-90.752c10.291-10.207 19.115-18.723 25.606-24.558 3.21-2.885 6.053-5.3 8.312-6.957 1.07-.785 2.393-1.689 3.771-2.351.648-.311 1.845-.836 3.356-1.074 1.335-.21 4.891-.485 8.076 2.233 3.368 2.875 3.511 6.667 3.453 8.041-.066 1.564-.47 2.839-.708 3.512-.511 1.449-1.273 2.881-1.947 4.052-1.426 2.476-3.564 5.656-6.15 9.284-5.228 7.336-12.939 17.413-22.217 29.22l-86.158 106.735c-6.471 7.924-9.707 11.886-9.594 12.365a1 1 0 0 0 .854.764c.49.059 4.076-3.606 11.248-10.936l72.4-72.924c9.365-9.12 17.418-16.745 23.366-21.971 2.937-2.58 5.576-4.767 7.703-6.276 1.005-.713 2.29-1.562 3.657-2.182.649-.294 1.837-.782 3.332-.982 1.367-.183 4.679-.333 7.704 2.154 2.49 2.047 3.293 4.675 3.529 6.302.228 1.57.05 2.889-.088 3.642-.281 1.526-.832 2.912-1.248 3.862-.893 2.041-2.251 4.478-3.797 7.049-3.154 5.246-7.865 12.312-13.505 20.459-13.735 19.841-40.82 56.179-58.261 79.402-4.603 6.129-6.905 9.194-6.785 9.66a.99.99 0 0 0 .847.742c.478.059 3.225-2.635 8.721-8.022 8.972-8.796 18.987-18.225 24.888-22.545.631-.462 1.334-.948 2.055-1.377.536-.319 1.82-1.062 3.454-1.464.791-.194 2.609-.556 4.813-.009 2.729.676 5.255 2.574 6.547 5.499 1.044 2.364.865 4.477.739 5.392-.147 1.056-.431 1.909-.625 2.427-1.224 3.262-4.05 5.454-7.248 6.02-23.292 18.857-43.635 41.276-66.248 60.94-4.38 3.809-8.399 7.125-11.592 9.394-1.536 1.09-3.28 2.229-4.994 3.014-.814.374-2.177.931-3.831 1.151-1.509.201-5.167.344-8.326-2.533-2.495-2.272-3.076-5.058-3.203-6.538-.129-1.497.093-2.739.249-3.437.319-1.43.872-2.744 1.3-3.673.914-1.986 2.283-4.385 3.854-6.947 3.198-5.218 7.943-12.264 13.618-20.405 12.249-17.575 42.212-56.563 62.301-82.489 5.278-6.812 7.918-10.218 7.796-10.692-.104-.406-.446-.702-.863-.746-.486-.052-3.471 3.047-9.439 9.245L248.682 388.415c-9.381 9.13-17.455 16.768-23.429 22.009-2.95 2.589-5.601 4.783-7.742 6.299-1.014.719-2.299 1.565-3.659 2.185-.65.296-1.811.774-3.267.984-1.311.188-4.512.386-7.533-1.917-3.097-2.36-3.804-5.62-3.915-7.402-.107-1.721.229-3.149.447-3.927.457-1.631 1.218-3.198 1.866-4.416 1.379-2.589 3.483-5.855 6.011-9.519 5.121-7.422 12.747-17.566 21.943-29.41 17.648-22.731 54.306-67.339 81.479-100.19 8.986-10.865 13.479-16.297 13.365-16.78-.097-.413-.441-.718-.863-.765-.493-.055-5.345 5.054-15.049 15.271l-82.994 86.221-25.347 24.675c-3.159 2.91-5.917 5.33-8.069 6.995-1.02.79-2.245 1.68-3.49 2.352a12.22 12.22 0 0 1-3.082 1.188c-.988.226-5.08 1.022-8.712-2.112-2.788-2.407-3.365-5.484-3.455-7.108s.209-2.977.415-3.746c.427-1.595 1.14-3.126 1.752-4.322 1.296-2.532 3.269-5.702 5.628-9.238 4.782-7.165 11.892-16.922 20.455-28.292 18.286-24.28 56.264-71.606 84.091-106.035 8.924-11.042 13.386-16.563 13.267-17.045a1 1 0 0 0-.873-.755c-.494-.049-5.302 5.15-14.918 15.547l-124.01 132.953-28.708 29.309c-3.576 3.465-6.662 6.315-9.045 8.268-1.138.933-2.439 1.932-3.727 2.683-.591.345-1.692.947-3.087 1.324-.91.246-5.075 1.274-8.892-1.805-3.141-2.533-3.686-5.939-3.742-7.609-.057-1.695.294-3.119.533-3.936.501-1.715 1.329-3.436 2.101-4.89 1.621-3.051 4.117-6.979 7.181-11.484 6.19-9.1 15.405-21.581 26.548-36.204 23.249-30.507 70.758-89.278 103.408-129.417 9.216-11.33 13.824-16.995 13.706-17.478a1 1 0 0 0-.871-.758c-.495-.049-5.458 5.297-15.385 15.991L135.634 306.2l-30.162 30.316c-3.751 3.576-6.972 6.504-9.443 8.5-1.181.954-2.517 1.965-3.828 2.718-.596.343-1.725.952-3.152 1.322-.909.235-5.326 1.276-9.164-2.154-3.342-2.987-3.361-6.84-3.295-8.078.081-1.526.474-2.794.721-3.506.529-1.524 1.331-3.091 2.094-4.461 1.597-2.866 4.014-6.603 6.986-10.938 5.996-8.747 14.849-20.791 25.529-34.938 24.313-32.205 73.067-93.78 107.036-136.461 9.876-12.408 14.814-18.612 14.689-19.095-.106-.411-.458-.71-.882-.746-.496-.043-5.805 5.861-16.422 17.669L92.758 282.06c-12.534 13.319-23.273 24.423-31.193 32.042-3.925 3.776-7.359 6.891-10.069 9.015-1.3 1.02-2.801 2.105-4.32 2.894-.726.377-1.948.95-3.465 1.249-1.351.266-4.708.651-7.941-1.664-2.898-2.075-3.873-5.002-4.134-6.922-.243-1.784.013-3.299.206-4.169.395-1.784 1.145-3.492 1.788-4.811 1.366-2.799 3.498-6.306 6.067-10.218 5.208-7.932 13.026-18.748 22.482-31.361 24.447-32.608 76.274-97.073 108.736-137.197 7.614-9.41 11.42-14.116 11.303-14.596a1 1 0 0 0-.865-.758c-.493-.053-4.652 4.344-12.972 13.138l-93.028 97.075-23.783 23.224c-2.976 2.736-5.616 5.037-7.712 6.627-.991.751-2.228 1.629-3.522 2.288a12.04 12.04 0 0 1-3.211 1.122c-1.22.231-4.9.687-8.235-2.09-3.209-2.671-3.567-6.213-3.564-7.719.003-1.598.372-2.906.594-3.599.473-1.477 1.202-2.909 1.826-4.04 1.325-2.399 3.315-5.446 5.703-8.882 4.835-6.956 11.986-16.485 20.584-27.628 20.468-26.526 63.3-78.892 92.578-114.475 8.087-9.829 12.131-14.743 12.016-15.225-.097-.412-.441-.717-.862-.764-.493-.055-4.875 4.545-13.639 13.744l-94.474 98.299-23.446 23.168c-2.93 2.743-5.505 5.039-7.529 6.635-.962.758-2.122 1.617-3.309 2.279-.549.306-1.584.845-2.901 1.185z" fill="#000" fill-rule="evenodd"/></svg>