<svg xmlns="http://www.w3.org/2000/svg" width="337" height="324" fill="none" fill-rule="evenodd" xmlns:v="https://vecta.io/nano"><path d="M155.5 155.5c-3.908 1.298-7.908 1.132-12-.5a153.48 153.48 0 0 1-39-26C79.377 105.855 58.21 79.688 41 50.5c-8.685-14.222-13.852-29.556-15.5-46-.149-1.052.017-2.052.5-3 .667-1.333 1.333-1.333 2 0C53.126 51.308 85.96 95.474 126.5 134a299.91 299.91 0 0 0 29 21.5z" fill="#83bde7"/><path opacity=".999" d="M25.5 4.5c1.648 16.444 6.815 31.778 15.5 46 17.21 29.188 38.377 55.355 63.5 78.5a153.48 153.48 0 0 0 39 26c4.092 1.632 8.092 1.798 12 .5.543.06.876.393 1 1-1.688 1.021-3.021 2.355-4 4-27.232 19.231-50.899 42.231-71 69a798.2 798.2 0 0 1-80.5-77c-1.425-50.528 6.408-99.528 23.5-147 0-.667.333-1 1-1z" fill="#00498d"/><path d="M316.5 161.5h7c-54.078 11.614-96.578 40.28-127.5 86-13.967 23.068-21.8 48.068-23.5 75a6644.29 6644.29 0 0 1-163-1c32.501-48.674 71.834-91.174 118-127.5 17.058-12.694 35.391-23.361 55-32 18.604-1.148 37.271-1.648 56-1.5l78 1z" fill="#e31e37"/><path d="M323.5 161.5c4.014-.166 8.014.001 12 .5-4.608 1.035-8.941 2.535-13 4.5-14.585 4.792-28.585 10.958-42 18.5-52.205 33.046-88.205 78.879-108 137.5 1.7-26.932 9.533-51.932 23.5-75 30.922-45.72 73.422-74.386 127.5-86z" fill="#ee8185"/><path opacity=".992" d="M335.5 182.5a3252.36 3252.36 0 0 1 .5 131c-.181 3.195-.681 6.195-1.5 9-6.347-11.361-12.181-23.028-17.5-35-15.646-26.265-38.48-42.931-68.5-50-.543-.06-.876-.393-1-1 18.63-30.644 44.297-52.977 77-67a128.75 128.75 0 0 1 11-2v15z" fill="#fed00a"/><path d="M248.5 237.5c30.02 7.069 52.854 23.735 68.5 50 5.319 11.972 11.153 23.639 17.5 35a.91.91 0 0 1-.5 1c-11.244-15.248-23.244-29.914-36-44-14.93-16.116-31.43-30.116-49.5-42z" fill="#f3e97f"/></svg>