<svg width="323" height="323" viewBox="0 0 323 323" fill="none" xmlns="http://www.w3.org/2000/svg">
<g clip-path="url(#clip0_395_32)">
<path d="M174.845 161.5C192.751 160.352 210.717 159.852 228.743 160C253.771 160.157 278.795 160.491 303.815 161H310.552C314.416 160.834 318.266 161.001 322.102 161.5C317.667 162.535 313.496 164.035 309.589 166C295.552 170.792 282.078 176.958 269.167 184.5C218.921 217.546 184.272 263.379 165.22 322C112.923 322.333 60.6288 322 8.33936 321C39.6203 272.326 77.4767 229.826 121.91 193.5C138.327 180.806 155.972 170.139 174.845 161.5Z" fill="#E31E37"/>
<path opacity="0.992" d="M322.101 182C323.108 225.661 323.269 269.328 322.583 313C322.409 316.195 321.928 319.195 321.139 322C321.202 322.438 321.042 322.772 320.658 323C309.836 307.752 298.287 293.086 286.01 279C271.64 262.884 255.759 248.884 238.368 237C237.845 236.94 237.524 236.607 237.405 236C255.336 205.356 280.039 183.023 311.514 169C315.014 168.174 318.543 167.508 322.101 167V182Z" fill="#FED00A"/>
<path opacity="0.999" d="M24.2197 0.999992C24.8616 -0.333279 25.5025 -0.33322 26.1445 0.999992C50.3273 50.8075 81.929 94.974 120.947 133.5C129.861 141.269 139.165 148.436 148.858 155C149.381 155.06 149.702 155.393 149.821 156C148 158 148.443 157.5 145.972 160C143.5 162.5 96.9831 202.231 77.6367 229C50.1045 205.228 24.2784 179.561 0.158153 152C-1.21374 101.472 6.32593 52.472 22.7763 4.99999C22.7763 4.33342 23.0965 4.00012 23.7382 3.99999C23.5948 2.94803 23.7548 1.94796 24.2197 0.999992Z" fill="#00498D"/>
</g>
<defs>
<clipPath id="clip0_395_32">
<rect width="323" height="323" fill="white"/>
</clipPath>
</defs>
</svg>
