<svg width="22" height="22" viewBox="0 0 101 101" fill="none" xmlns="http://www.w3.org/2000/svg">
<circle cx="50.5" cy="50.5" r="50" stroke="#F5F5F5"/>
<path d="M84.0639 78.3403C82.0912 80.2861 79.5512 81.537 76.8206 81.9076C74.09 82.2782 71.3139 81.7489 68.904 80.398L50.4927 70.1476L33.1303 79.8097C30.7373 78.5412 28.94 76.3633 28.1335 73.7548C27.3269 71.1462 27.5771 68.3204 28.8289 65.8984L44.2866 57.2936C46.1858 56.229 48.3214 55.6705 50.4925 55.6705C52.6637 55.6705 54.7993 56.229 56.6985 57.2936L72.1579 65.898C74.5362 67.1558 77.3087 67.4141 79.8741 66.6169C82.4394 65.8197 84.5906 64.0313 85.8608 61.6397L86.5826 63.0769C87.843 65.5562 88.2788 68.3808 87.8252 71.1308C87.3716 73.8807 86.0528 76.4091 84.0649 78.34" fill="#A50C22"/>
<path d="M33.1305 79.8111L32.0771 80.3993C29.6648 81.741 26.8909 82.2651 24.1626 81.8947C21.4342 81.5243 18.895 80.279 16.9176 78.3414C14.9402 76.4038 13.6287 73.8761 13.1756 71.1291C12.7225 68.3821 13.1516 65.5604 14.4 63.0783L36.7378 18.6625C39.1078 17.3724 41.8868 17.0857 44.4654 17.8654C47.0441 18.6452 49.2118 20.4276 50.4933 22.822L28.8309 65.8972C27.5796 68.3194 27.3299 71.145 28.1364 73.7534C28.9429 76.3617 30.7397 78.5396 33.1323 79.8086" fill="#D83D43"/>
<path d="M85.8604 61.6398C84.5902 64.0315 82.439 65.82 79.8737 66.6172C77.3084 67.4145 74.5358 67.1563 72.1574 65.8985L50.495 22.8232C49.2134 20.4288 47.0456 18.6464 44.4668 17.8666C41.8881 17.0869 39.109 17.3736 36.7389 18.6638L39.0191 14.1328C40.0931 11.9873 41.7339 10.1848 43.7592 8.92571C45.7846 7.66657 48.1152 7 50.4924 7C52.8696 7 55.2003 7.66657 57.2256 8.92571C59.251 10.1848 60.8918 11.9873 61.9657 14.1328L85.8604 61.6398Z" fill="#FFA936"/>
</svg>
