<svg xmlns="http://www.w3.org/2000/svg" width="81" height="81" fill="none" xmlns:v="https://vecta.io/nano"><path d="M77.246 40.032c.667-.543 1.234-1.189 1.701-1.936a6.16 6.16 0 0 0 1.101-3.719c-.033-2.174-.767-4.076-2.201-5.706-1.134-1.257-2.585-2.072-4.353-2.446-.634-.068-1.234 0-1.801.204-1.834.136-3.569.578-5.203 1.325-6.704 3.261-13.291 6.759-19.762 10.496-.467.238-.917.526-1.351.866-.3.272-.65.526-1.051.764h-.2c-.033-.068-.05-.119-.05-.153-.033-.102-.033-.187 0-.255l4.953-15.081c.7-2.174 1.151-4.382 1.351-6.623a114 114 0 0 1 .35-3.515c.233-2.378.133-4.721-.3-7.031-.267-1.257-.8-2.361-1.601-3.312-1.267-1.461-2.818-2.463-4.653-3.006A26.51 26.51 0 0 0 42.626.75a6.46 6.46 0 0 0-3.552.815c-.233.136-.467.289-.701.459s-.45.374-.65.611c-.467.442-.884.917-1.251 1.427-1.234 1.766-2.068 3.702-2.501 5.808l-4.503 22.672a3.34 3.34 0 0 0 0 .815c.033.34.083.679.15 1.019a314.3 314.3 0 0 0-10.606-9.527 60.9 60.9 0 0 0-5.453-4.28c-.467-.272-.934-.526-1.401-.764-1.267-.611-2.585-.985-3.952-1.121-2.301-.034-4.253.764-5.853 2.395C.851 22.573.083 24.492.05 26.836c0 1.257.3 2.514.901 3.77.6 1.291 1.418 2.547 2.451 3.77a362.09 362.09 0 0 0 14.709 12.228c1.267 1.019 2.635 1.902 4.102 2.649L6.654 62.551c-.634.577-1.217 1.206-1.751 1.885-.467.611-.8 1.291-1.001 2.038-.5 1.868-.717 3.787-.65 5.757.033.951.3 1.868.8 2.751.367.679.867 1.291 1.501 1.834.534.51 1.151.934 1.851 1.274 1.534.679 3.119.883 4.753.611a9.27 9.27 0 0 0 4.453-2.14l18.611-16.508a22.78 22.78 0 0 0 .7 1.681c.233.544.5 1.07.8 1.58a11.95 11.95 0 0 0 1.151 1.732 105.38 105.38 0 0 0 7.705 8.305c2.401 2.242 4.97 4.297 7.705 6.165a6.29 6.29 0 0 0 2.301.968c.767.17 1.568.255 2.401.255 1.001-.102 1.918-.492 2.752-1.172a41.59 41.59 0 0 0 1.851-1.579c.534-.543.95-1.206 1.251-1.987.1-.238.183-.475.25-.713.4-1.461.45-2.921.15-4.382a13.93 13.93 0 0 0-.5-1.681c-.2-.577-.484-1.087-.85-1.528l-11.057-13.96a4.91 4.91 0 0 0 1.851-.56c5.703-2.547 11.273-5.367 16.71-8.458 2.435-1.325 4.719-2.887 6.854-4.687z" fill="#00f"/></svg>