<svg width="25" height="25" viewBox="0 0 40 40" fill="none" xmlns="http://www.w3.org/2000/svg">
<path d="M3.62521 31.4852L30.8616 3.20241C30.8377 3.18689 30.8139 3.1712 30.7898 3.15579L2.76184 30.1468C3.03215 30.605 3.32036 31.0514 3.62521 31.4852Z" fill="black"/>
<path d="M8.40524 36.2976L35.8496 7.79884C35.8347 7.77948 35.8196 7.76018 35.8046 7.74088L7.1554 35.3301C7.55886 35.6685 7.97564 35.9914 8.40524 36.2976Z" fill="black"/>
<path d="M11.4098 38.0658L37.73 10.7344C37.7137 10.7033 37.6974 10.6723 37.681 10.6413L9.9834 37.3141C10.4474 37.5831 10.9232 37.8339 11.4098 38.0658Z" fill="black"/>
<path d="M9.85318 37.2382L36.8442 9.21019C36.8288 9.18615 36.8131 9.16233 36.7976 9.1384L8.51477 36.3748C8.9486 36.6796 9.39496 36.9679 9.85318 37.2382Z" fill="black"/>
<path d="M2.68593 30.0166L29.3587 2.31901C29.3278 2.30259 29.2967 2.28628 29.2656 2.27002L1.9342 28.5902C2.16602 29.0768 2.41692 29.5526 2.68593 30.0166Z" fill="black"/>
<path d="M0.198054 22.8239L22.0759 0.105488C21.9734 0.0949325 21.8706 0.0851114 21.7677 0.0760803L0.0253906 21.0139C0.055927 21.6249 0.113896 22.2286 0.198054 22.8239Z" fill="black"/>
<path d="M0.0948486 18.043L17.2964 0.180573C17.0878 0.208795 16.8801 0.240008 16.6735 0.274609L0.413984 15.9325C0.271237 16.6236 0.164332 17.3278 0.0948486 18.043Z" fill="black"/>
<path d="M1.85906 28.4312L27.7429 1.55289C27.7019 1.53562 27.6607 1.51858 27.6195 1.50159L1.22852 26.9161C1.41845 27.4314 1.62893 27.9368 1.85906 28.4312Z" fill="black"/>
<path d="M20.0006 40C20.4573 40 20.9103 39.9843 21.3593 39.9542L39.9918 20.6059C39.996 20.463 39.9988 20.3197 40.0001 20.1761L19.4233 39.9915C19.6151 39.9969 19.8075 40 20.0006 40Z" fill="black"/>
<path d="M0.615234 15.0586L14.3333 0.813416C13.9964 0.912758 13.6631 1.02068 13.3338 1.13707L1.40308 12.6264C1.09066 13.4138 0.826844 14.2258 0.615234 15.0586Z" fill="black"/>
<path d="M0.594249 24.8565L24.1223 0.424473C24.0475 0.408782 23.9725 0.393542 23.8974 0.378754L0.247681 23.1535C0.339008 23.7297 0.454831 24.2978 0.594249 24.8565Z" fill="black"/>
<path d="M1.15642 26.7168L26.0031 0.915515C25.948 0.898186 25.8926 0.881196 25.8373 0.864319L0.659546 25.1105C0.803084 25.6555 0.96903 26.1912 1.15642 26.7168Z" fill="black"/>
<path d="M24.0674 39.586L39.7254 23.3265C39.76 23.1199 39.7912 22.9122 39.8195 22.7036L21.957 39.9051C22.6722 39.8357 23.3763 39.7287 24.0674 39.586Z" fill="black"/>
<path d="M5.81543 34.0989L33.5554 5.29313C33.5389 5.27789 33.5224 5.26265 33.5058 5.24747L4.74988 32.9395C5.08984 33.3399 5.44539 33.7266 5.81543 34.0989Z" fill="black"/>
<path d="M4.66985 32.8445L32.2591 4.19529C32.2398 4.18027 32.2205 4.1652 32.2011 4.1503L3.70239 31.5947C4.0086 32.0243 4.33147 32.4411 4.66985 32.8445Z" fill="black"/>
<path d="M27.3736 38.5969L38.8629 26.6661C38.9793 26.3368 39.0873 26.0035 39.1866 25.6666L24.9414 39.3847C25.7742 39.1731 26.5862 38.9093 27.3736 38.5969Z" fill="black"/>
<path d="M5.90112 34.1845C6.27343 34.5545 6.66013 34.9101 7.06049 35.2501L34.7525 6.49413C34.7373 6.47754 34.7221 6.461 34.7069 6.44452L5.90112 34.1845Z" fill="black"/>
<path d="M0 19.9994C0 20.1925 0.00304851 20.3849 0.00846716 20.5767L19.8239 0C19.6802 0.00124178 19.537 0.00400733 19.394 0.00824065L0.0457766 18.6407C0.0156353 19.0897 0 19.5428 0 19.9994Z" fill="black"/>
<path d="M4.79611 7.00531C3.73874 8.24133 2.82937 9.60773 2.0957 11.0772L10.4083 2.44534C9.41535 2.98907 8.47363 3.61459 7.59208 4.31286L4.79611 7.00531Z" fill="black"/>
<path d="M13.0838 38.7714L38.4984 12.3804C38.4814 12.3392 38.4643 12.2981 38.4471 12.257L11.5688 38.1409C12.0632 38.3711 12.5685 38.5815 13.0838 38.7714Z" fill="black"/>
<path d="M32.9947 35.2038L35.6872 32.4079C36.3855 31.5264 37.011 30.5846 37.5547 29.5917L28.9229 37.9042C30.3923 37.1706 31.7587 36.2612 32.9947 35.2038Z" fill="black"/>
<path d="M18.986 39.9746L39.9239 18.2323C39.9149 18.1293 39.9051 18.0265 39.8945 17.924L17.1761 39.8019C17.7714 39.886 18.3751 39.9441 18.986 39.9746Z" fill="black"/>
<path d="M14.8894 39.3405L39.1357 14.1628C39.1188 14.1074 39.1018 14.0521 39.0845 13.9969L13.2832 38.8436C13.8088 39.031 14.3446 39.1969 14.8894 39.3405Z" fill="black"/>
<path d="M15.1434 39.4057C15.7022 39.5451 16.2702 39.661 16.8464 39.7523L39.6212 16.1026C39.6063 16.0274 39.5911 15.9525 39.5755 15.8776L15.1434 39.4057Z" fill="black"/>
</svg>
